<mxfile host="app.diagrams.net" modified="2024-03-27T14:09:19.854Z" agent="Mozilla/5.0 (X11; Linux x86_64) AppleWebKit/537.36 (KHTML, like Gecko) Chrome/119.0.0.0 Safari/537.36" version="24.2.0" etag="9N6QJs6J3E8yGrDBh-Kh" type="github">
  <diagram name="PÃ¡gina-1" id="nUAWqSii7CR7eGC-CyDY">
    <mxGraphModel>
      <root>
        <mxCell id="0" />
        <mxCell id="1" parent="0" />
      </root>
    </mxGraphModel>
  </diagram>
</mxfile>
